<?xml version="1.0" standalone="no"?>
<!DOCTYPE svg PUBLIC "-//W3C//DTD SVG 20010904//EN"
 "http://www.w3.org/TR/2001/REC-SVG-20010904/DTD/svg10.dtd">
<svg version="1.0" xmlns="http://www.w3.org/2000/svg"
 width="512.000000pt" height="512.000000pt" viewBox="0 0 512.000000 512.000000"
 preserveAspectRatio="xMidYMid meet">
<metadata>
Created by potrace 1.14, written by Peter Selinger 2001-2017
</metadata>
<g transform="translate(0.000000,512.000000) scale(0.100000,-0.100000)"
fill="#000000" stroke="none">
<path d="M2153 5100 c-90 -32 -162 -98 -204 -187 -23 -47 -23 -57 -24 -333 0
-157 3 -303 8 -324 4 -22 21 -64 37 -95 17 -30 29 -56 27 -57 -3 -3 -142 -6
-220 -5 l-48 1 26 35 c15 19 38 66 51 105 105 301 -110 615 -426 622 -81 2
-127 -7 -198 -38 -171 -76 -277 -233 -281 -421 -3 -123 46 -251 122 -323 15
-14 27 -27 27 -31 0 -3 -24 -30 -54 -60 -90 -93 -98 -127 -99 -412 0 -161 -4
-240 -11 -243 -6 -2 -43 -5 -82 -7 -86 -4 -151 -33 -191 -85 -52 -69 -58 -105
-57 -352 0 -204 2 -229 21 -271 39 -88 121 -140 227 -144 34 -2 68 -4 77 -4
12 -1 18 -15 23 -48 15 -111 87 -206 196 -257 65 -30 65 -30 250 -32 170 0
214 4 285 30 6 2 15 3 20 2 6 -1 10 -147 10 -415 l0 -414 -60 -28 c-33 -15
-100 -45 -150 -67 -49 -22 -115 -51 -145 -65 -30 -14 -104 -46 -165 -72 -177
-77 -549 -261 -568 -283 -10 -11 -19 -33 -19 -48 -1 -38 303 -648 345 -692 57
-60 100 -76 207 -77 79 0 102 4 135 21 94 51 139 125 139 229 0 65 -4 78 -56
185 -50 100 -55 116 -40 121 24 10 501 208 537 224 17 8 70 30 120 50 167 68
249 147 295 286 20 58 22 86 23 294 0 127 5 240 10 252 5 12 23 27 40 32 59
21 68 10 275 -354 106 -187 196 -347 199 -355 4 -8 29 -52 55 -98 26 -46 48
-86 48 -88 0 -2 10 -21 23 -42 13 -20 37 -62 54 -92 53 -96 86 -154 108 -190
12 -19 68 -127 124 -240 57 -113 108 -211 113 -217 6 -7 25 -15 43 -19 28 -5
72 14 316 136 305 153 343 179 379 262 63 147 -8 312 -159 369 -75 28 -146 21
-240 -25 l-70 -34 -361 720 -360 721 0 258 0 259 46 -30 c82 -51 166 -74 279
-74 178 -1 270 45 445 218 99 99 110 106 114 85 3 -13 17 -71 30 -129 14 -58
43 -184 65 -280 23 -96 84 -359 136 -585 53 -225 107 -457 120 -515 14 -58 74
-319 135 -580 61 -261 123 -528 137 -592 31 -134 22 -128 134 -100 l66 17 -29
120 c-15 66 -37 158 -48 205 -76 327 -242 1043 -310 1335 -45 193 -92 397
-106 455 -13 58 -62 265 -108 460 l-83 355 66 67 c100 103 115 135 116 243 0
74 -4 97 -22 131 -55 102 -153 166 -257 166 l-44 0 -13 64 c-8 39 -18 64 -26
64 -7 0 -46 -7 -87 -16 l-74 -17 15 -61 c7 -33 16 -70 19 -81 4 -17 -34 -60
-182 -209 l-187 -187 -33 38 c-18 21 -95 114 -172 207 l-140 168 -5 72 c-7 92
-11 109 -43 174 -27 56 -98 135 -148 166 l-28 18 25 26 c42 46 75 105 93 167
14 48 17 104 18 283 l1 223 25 16 c14 8 43 38 66 67 91 113 105 257 27 287
-15 5 -163 9 -357 9 -296 -1 -337 -3 -383 -20z m-751 -684 c12 -17 9 -33 -8
-50 -22 -23 -41 -20 -60 9 -16 24 -16 27 1 45 19 21 52 19 67 -4z m424 -508
c-18 -10 -39 -2 -31 12 3 4 15 6 26 3 19 -5 19 -7 5 -15z"/>
</g>
</svg>
